<svg xmlns="http://www.w3.org/2000/svg" width="30" height="30" fill-rule="evenodd" style=""><rect id="backgroundrect" width="100%" height="100%" x="0" y="0" fill="none" stroke="none" class="" style=""/><g class="currentLayer" style=""><title>Layer 1</title><path d="M17.39999988079071,24.069807505607606 c2.1,0.7000000000000003 4.2,0.8 6.3,0.2 s3.8,-1.8 5.3,-3.5 c0.1,0.2 0,0.30000000000000016 -0.1,0.4 c-2,4.5 -5.4,7.3 -10,8.6 c-0.30000000000000016,0.1 -0.6000000000000003,0.1 -0.8,-0.1 c-1.7000000000000002,-1.6 -2.6,-3.5 -2.4,-5.9 c0.30000000000000016,-3.5 2.1,-6 5.2,-7.6 c0,0 0.1,0 0.1,-0.1 c-0.4,-0.1 -0.8,-0.1 -1.2,0 c-4.7,0.6000000000000003 -8.7,4.5 -9.4,9.2 c-0.2,1.3 -0.1,2.6 0.2,3.8 c0,0.1 0.1,0.30000000000000016 0,0.4 s-0.2,0.1 -0.4,0 c-4.8,-1.8 -8,-5.1 -9.6,-9.9 c-0.4,-1.5 -0.6000000000000003,-2.9 -0.6000000000000003,-4.3 v-0.2 c0,-0.1 0,-0.2 0.2,-0.2 c0.1,0 0.1,0.1 0.2,0.2 c0.2,1.3 0.9,2.4 1.8,3.3 c1.2,1.2 2.6,1.4 4.2,1.2 c2.3,-0.30000000000000016 4.3,-1.3 6.3,-2.2 c1.6,-0.7000000000000003 3.3,-1.5 5,-2 c1.8,-0.5 3.6,-0.6000000000000003 5.4,0.2 c2.3,1 3.3,3.7 2.1,5.7 c-0.7000000000000003,1.1 -1.8,1.7000000000000002 -2.9,2.1 c-1.2,0.4 -2.4,0.4 -3.7,0.5 h-1.2 v0.2 z" fill="#023465" id="svg_1" class=""/><path d="M10.699999880790712,1.869807505607605 a3.14,3.14 0 0 0 -1.6,1.8 c-0.2,0.7000000000000003 0,1.3 0.7000000000000003,1.6 c0.8,0.4 1.6,0.5 2.5,0.6000000000000003 c1.8,0 3.7,-0.2 5.5,-0.6000000000000003 c2,-0.4 3.9,-0.6000000000000003 5.9,-0.1 c3.3,0.9 5.2,3.1 6.1,6.3 c0,0.2 0,0.4 0.1,0.6000000000000003 c-0.2,0 -0.2,-0.1 -0.2,-0.2 c-1.1,-2.6 -3.2,-4 -5.8,-4.8 c-1.8,-0.5 -3.6,-0.30000000000000016 -5.4,0 L11.99999988079071,7.969807505607605 c-1.3,0 -2.6,0 -3.9,-0.5 c-0.2,-0.1 -0.4,-0.1 -0.6000000000000003,-0.2 c-0.8,-0.5 -1,-1.2 -0.7000000000000003,-2.1 c0.1,-0.2 0.2,-0.5 0.30000000000000016,-0.8 c-0.6000000000000003,0.1 -1,0.5 -1.3,0.9 c-0.8,1.2 -0.9,3.1 0.7000000000000003,4.2 c0.9,0.6000000000000003 1.9,0.8 3,0.8 c3.1,0 6.1,-0.6000000000000003 9.1,-1.4 c1.8,-0.5 3.7,-0.7000000000000003 5.6,-0.2 c2.9,0.6000000000000003 4.8,2.4 5.8,5.3 v0.2 c-0.1,0 -0.1,0 -0.1,-0.1 c-1,-2 -2.8,-2.9 -4.9,-3.3 c-1.8,-0.30000000000000016 -3.5,-0.2 -5.3,0.30000000000000016 l-5.4,1.7000000000000002 c-2.4,0.7000000000000003 -4.9,1.3 -7.5,1.2 a8.15,8.15 0 0 1 -3.1,-0.6000000000000003 c-1.8,-0.7000000000000003 -2.6,-2.1 -2.2,-4.1 c0.30000000000000016,-1.4 0.9,-2.5 1.8,-3.5 c1.5,-2 3.4,-3.6 5.7,-4.5 C14.89999988079071,-1.030192494392395 20.29999988079071,-0.230192494392395 25.19999988079071,3.869807505607605 c0.2,0.1 0.30000000000000016,0.30000000000000016 0.4,0.4 s0.1,0.1 0,0.2 s-0.1,0 -0.2,0 C23.19999988079071,2.969807505607605 20.69999988079071,2.969807505607605 18.099999880790712,3.369807505607605 c-1.5,0.30000000000000016 -2.9,0.6000000000000003 -4.4,0.7000000000000003 c-0.6000000000000003,0.1 -1.3,0 -1.9,-0.1 c-1,-0.2 -1.6,-0.9 -1.1,-2 v-0.1 z" fill="#486A25" id="svg_2" class=""/><path d="M10.699999880790712,1.869807505607605 a3.14,3.14 0 0 0 -1.6,1.8 c-0.2,0.7000000000000004 0,1.3 0.7000000000000004,1.6 c0.8,0.4 1.6,0.5 2.5,0.6000000000000004 c1.8,0 3.7,-0.2 5.5,-0.6000000000000004 c2,-0.4 3.9,-0.6000000000000004 5.9,-0.1 c3.3,0.9 5.2,3.1 6.1,6.3 c0,0.2 0,0.4 0.1,0.6000000000000004 c-0.2,0 -0.2,-0.1 -0.2,-0.2 c-1.1,-2.6 -3.2,-4 -5.8,-4.8 c-1.8,-0.5 -3.6,-0.3000000000000002 -5.4,0 L11.99999988079071,7.969807505607605 c-1.3,0 -2.6,0 -3.9,-0.5 c-0.2,-0.1 -0.4,-0.1 -0.6000000000000004,-0.2 c-0.8,-0.5 -1,-1.2 -0.7000000000000004,-2.1 c0.1,-0.2 0.2,-0.5 0.3000000000000002,-0.8 c-0.6000000000000004,0.1 -1,0.5 -1.3,0.9 c-0.8,1.2 -0.9,3.1 0.7000000000000004,4.2 c0.9,0.6000000000000004 1.9,0.8 3,0.8 c3.1,0 6.1,-0.6000000000000004 9.1,-1.4 c1.8,-0.5 3.7,-0.7000000000000004 5.6,-0.2 c2.9,0.6000000000000004 4.8,2.4 5.8,5.3 v0.2 c-0.1,0 -0.1,0 -0.1,-0.1 c-1,-2 -2.8,-2.9 -4.9,-3.3 c-1.8,-0.3000000000000002 -3.5,-0.2 -5.3,0.3000000000000002 l-5.4,1.7000000000000002 c-2.4,0.7000000000000004 -4.9,1.3 -7.5,1.2 a8.15,8.15 0 0 1 -3.1,-0.6000000000000004 c-1.8,-0.7000000000000004 -2.6,-2.1 -2.2,-4.1 c0.3000000000000002,-1.4 0.9,-2.5 1.8,-3.5 c1.5,-2 3.4,-3.6 5.7,-4.5 C14.89999988079071,-1.030192494392395 20.29999988079071,-0.230192494392395 25.19999988079071,3.869807505607605 c0.2,0.1 0.3000000000000002,0.3000000000000002 0.4,0.4 s0.1,0.1 0,0.2 s-0.1,0 -0.2,0 C23.19999988079071,2.969807505607605 20.69999988079071,2.969807505607605 18.099999880790712,3.369807505607605 c-1.5,0.3000000000000002 -2.9,0.6000000000000004 -4.4,0.7000000000000004 c-0.6000000000000004,0.1 -1.3,0 -1.9,-0.1 c-1,-0.2 -1.6,-0.9 -1.1,-2 v-0.1 z" fill="#486A25" class="" id="svg_5"/><path d="M54.79999988079071,16.569807505607606 c-0.6000000000000003,-1 -1.4,-1.8 -2.5,-2.5 h1 c0.5,0 0.9,0 1.3,-0.30000000000000016 c0.1,-0.1 0.2,-0.2 0.2,0.1 v2.7 z" fill="#486A25" id="svg_4" class=""/></g></svg>